HIERARCHY
ROOT pelvis
{
  OFFSET 0 100 0
  CHANNELS 6 Xposition Yposition Zposition Zrotation Xrotation Yrotation
  JOINT pelvis_right_femur
  {
    OFFSET -10.78128 -3.44521 -0.5502486
    CHANNELS 3 Zrotation Xrotation Yrotation
    JOINT right_femur_tibia
    {
      OFFSET -0.8047443 -44.0398 -0.1307829
      CHANNELS 3 Zrotation Xrotation Yrotation
      JOINT right_tibia_foot
      {
        OFFSET 3.006224 -47.83518 -5
        CHANNELS 3 Zrotation Xrotation Yrotation
        End Site
        {
          OFFSET 0 -5 15
        }
      }
    }
  }
  JOINT pelvis_left_femur
  {
    OFFSET 10.78128 -3.44521 -0.5502486
    CHANNELS 3 Zrotation Xrotation Yrotation
    JOINT left_femur_tibia
    {
      OFFSET 0.8047443 -44.0398 -0.1307829
      CHANNELS 3 Zrotation Xrotation Yrotation
      JOINT left_tibia_foot
      {
        OFFSET -4.370144 -48.10324 -4.275266
        CHANNELS 3 Zrotation Xrotation Yrotation
        End Site
        {
          OFFSET 0 -5 15
        }
      }
    }
  }
  JOINT pelvis_spine1
  {
    OFFSET 0 6.468898 -3.129235
    CHANNELS 3 Zrotation Xrotation Yrotation
    JOINT spine1
    {
      OFFSET 0 23.15396 4.99043
      CHANNELS 3 Zrotation Xrotation Yrotation
      JOINT spine2
      {
        OFFSET 0 20.79997 -5.064912
        CHANNELS 3 Zrotation Xrotation Yrotation
        JOINT neck
        {
          OFFSET 0 14.38658 9.616178
          CHANNELS 3 Zrotation Xrotation Yrotation
          End Site
          {
            OFFSET 0 20 0
          }
        }
      }
      JOINT right_manubrium
      {
        OFFSET -5.722621 16.35077 3.967754
        CHANNELS 3 Zrotation Xrotation Yrotation
        JOINT right_clavicle
        {
          OFFSET -13.16364 1.694482 -4.693211
          CHANNELS 3 Zrotation Xrotation Yrotation
          JOINT right_humerus
          {
            OFFSET -28.5034 -0.3100689 -2.792744
            CHANNELS 3 Zrotation Xrotation Yrotation
            JOINT right_radius
            {
              OFFSET -25.15693 0.02248979 -1.271978
              CHANNELS 3 Zrotation Xrotation Yrotation
              End Site
              {
                OFFSET -15 0 0
              }
            }
          }
        }
      }
      JOINT left_manubrium
      {
        OFFSET 5.722621 16.35077 3.967754
        CHANNELS 3 Zrotation Xrotation Yrotation
        JOINT left_clavicle
        {
          OFFSET 13.16364 1.694482 -4.693211
          CHANNELS 3 Zrotation Xrotation Yrotation
          JOINT left_humerus
          {
            OFFSET 29.39168 -1.063119 -2.237045
            CHANNELS 3 Zrotation Xrotation Yrotation
            JOINT left_radius
            {
              OFFSET 24.59957 -0.9528479 0.9047498
              CHANNELS 3 Zrotation Xrotation Yrotation
              End Site
              {
                OFFSET 15 -0 -0
              }
            }
          }
        }
      }
    }
  }
}
MOTION
Frames: 7
Frame Time: 0.0416666666667
-515.7554 110.0437 -339.3068 11.10109 -3.055984 78.77039 6.30953 13.781 1.999872 -0 19.76572 -0 -12.79004 -13.28812 -4.928643 3.825384 -14.74692 -2.968013 -0 17.72651 -0 5.714143 -0.02812045 15.95406 1.282006 -3.404504 7.514755 0.3708779 15.82016 -6.926413 1.067038 20.15192 1.031993 -0.3834424 -17.23418 3.72871 -5.015676 -31.65835 11.47212 92.53704 16.17136 -10.70503 -0 0 28.27234 -20.20336 14.15981 11.81013 0.4673209 -22.5858 -8.911348 -92.79041 9.059 36.96744 0 0 -7.064204 8.420593 15.7137 2.03088
-510.3085 110.0306 -339.0454 11.06986 -3.16854 78.19507 6.30953 13.781 1.999872 -0 19.76572 -0 -12.79004 -13.28812 -4.928643 3.825384 -14.74692 -2.968013 -0 17.72651 -0 5.714143 -0.02812045 15.95406 1.282006 -3.404504 7.514755 0.3708779 15.82016 -6.926413 1.067038 20.15192 1.031993 -0.3834424 -17.23418 3.72871 -5.015676 -31.65835 11.47212 92.53704 16.17136 -10.70503 -0 0 28.27234 -20.20336 14.15981 11.81013 0.4673209 -22.5858 -8.911348 -92.79041 9.059 36.96744 0 0 -7.064204 8.420593 15.7137 2.03088
-504.8647 110.0175 -338.7283 11.03749 -3.280777 77.61963 6.30953 13.781 1.999872 -0 19.76572 -0 -12.79004 -13.28812 -4.928643 3.825384 -14.74692 -2.968013 -0 17.72651 -0 5.714143 -0.02812045 15.95406 1.282006 -3.404504 7.514755 0.3708779 15.82016 -6.926413 1.067038 20.15192 1.031993 -0.3834424 -17.23418 3.72871 -5.015676 -31.65835 11.47212 92.53704 16.17136 -10.70503 -0 0 28.27234 -20.20336 14.15981 11.81013 0.4673209 -22.5858 -8.911348 -92.79041 9.059 36.96744 0 0 -7.064204 8.420593 15.7137 2.03088
-499.4243 110.0044 -338.3555 11.00399 -3.392684 77.04406 6.30953 13.781 1.999872 -0 19.76572 -0 -12.79004 -13.28812 -4.928643 3.825384 -14.74692 -2.968013 -0 17.72651 -0 5.714143 -0.02812045 15.95406 1.282006 -3.404504 7.514755 0.3708779 15.82016 -6.926413 1.067038 20.15192 1.031993 -0.3834424 -17.23418 3.72871 -5.015676 -31.65835 11.47212 92.53704 16.17136 -10.70503 -0 0 28.27234 -20.20336 14.15981 11.81013 0.4673209 -22.5858 -8.911348 -92.79041 9.059 36.96744 0 0 -7.064204 8.420593 15.7137 2.03088
-493.988 109.9913 -337.9273 10.96936 -3.504249 76.46835 6.30953 13.781 1.999872 -0 19.76572 -0 -12.79004 -13.28812 -4.928643 3.825384 -14.74692 -2.968013 -0 17.72651 -0 5.714143 -0.02812045 15.95406 1.282006 -3.404504 7.514755 0.3708779 15.82016 -6.926413 1.067038 20.15192 1.031993 -0.3834424 -17.23418 3.72871 -5.015676 -31.65835 11.47212 92.53704 16.17136 -10.70503 -0 0 28.27234 -20.20336 14.15981 11.81013 0.4673209 -22.5858 -8.911348 -92.79041 9.059 36.96744 0 0 -7.064204 8.420593 15.7137 2.03088
-488.5564 109.9782 -337.4435 10.9336 -3.615462 75.89251 6.30953 13.781 1.999872 -0 19.76572 -0 -12.79004 -13.28812 -4.928643 3.825384 -14.74692 -2.968013 -0 17.72651 -0 5.714143 -0.02812045 15.95406 1.282006 -3.404504 7.514755 0.3708779 15.82016 -6.926413 1.067038 20.15192 1.031993 -0.3834424 -17.23418 3.72871 -5.015676 -31.65835 11.47212 92.53704 16.17136 -10.70503 -0 0 28.27234 -20.20336 14.15981 11.81013 0.4673209 -22.5858 -8.911348 -92.79041 9.059 36.96744 0 0 -7.064204 8.420593 15.7137 2.03088
-483.13 109.9651 -336.9042 10.89673 -3.72631 75.31653 6.30953 13.781 1.999872 -0 19.76572 -0 -12.79004 -13.28812 -4.928643 3.825384 -14.74692 -2.968013 -0 17.72651 -0 5.714143 -0.02812045 15.95406 1.282006 -3.404504 7.514755 0.3708779 15.82016 -6.926413 1.067038 20.15192 1.031993 -0.3834424 -17.23418 3.72871 -5.015676 -31.65835 11.47212 92.53704 16.17136 -10.70503 -0 0 28.27234 -20.20336 14.15981 11.81013 0.4673209 -22.5858 -8.911348 -92.79041 9.059 36.96744 0 0 -7.064204 8.420593 15.7137 2.03088
